# xmcd CD database file
#
# Track frame offsets:
#	150
#	12240
#	22192
#	32992
#	45700
#	53507
#	64612
#	74247
#	84432
#	95252
#	105437
#	115587
#	128075
#	140067
#	144260
#	148340
#	158787
#	167757
#	179230
#
# Disc length: 2519 seconds
#
# Revision: 3
# Processed by: cddbd v1.5.2PL0 Copyright (c) Steve Scherf et al.
# Submitted via: CDex 1.70beta2
#
DISCID=1209d513
DTITLE=Johnny Cash - 18 Golden Hits
DYEAR=1986
DGENRE=Country
TTITLE0=You're the nearest thing to heaven
TTITLE1=Rock Island line
TTITLE2=Cold cold heart
TTITLE3=Folsom Prisson Blues
TTITLE4=Hey good Lookin'
TTITLE5=I love you because
TTITLE6=Just about time
TTITLE7=Straight a's in love
TTITLE8=I just thought you'd like to know
TTITLE9=Goodbye little darling
TTITLE10=I could never be ashamed of you
TTITLE11=Next in line
TTITLE12=port of lonley hearts
TTITLE13=Sugar Time
TTITLE14=Sugar Time
TTITLE15=There You Go
TTITLE16=Two Timin' Women
TTITLE17=Big River
TTITLE18=Ballad Of A Teenage Queen
EXTD=YEAR: 1986
EXTT0=
EXTT1=
EXTT2=
EXTT3=
EXTT4=
EXTT5=
EXTT6=
EXTT7=
EXTT8=
EXTT9=
EXTT10=
EXTT11=
EXTT12=
EXTT13=
EXTT14=
EXTT15=
EXTT16=
EXTT17=
EXTT18=
PLAYORDER=
